<?xml version="1.0" standalone="no"?><!DOCTYPE svg PUBLIC "-//W3C//DTD SVG 1.1//EN" "http://www.w3.org/Graphics/SVG/1.1/DTD/svg11.dtd"><svg t="1598059221856" class="icon" viewBox="0 0 1024 1024" version="1.1" xmlns="http://www.w3.org/2000/svg" p-id="7095" xmlns:xlink="http://www.w3.org/1999/xlink" width="200" height="200"><defs><style type="text/css"></style></defs><path d="M512 512m-512 0a512 512 0 1 0 1024 0 512 512 0 1 0-1024 0Z" fill="#378CF4" p-id="7096"></path><path d="M514.825 235.92c-155.492 0-281.582 126.075-281.582 281.616 0 124.404 80.678 229.95 192.59 267.192 14.08 2.582 19.22-6.111 19.22-13.574 0-6.685-0.244-24.394-0.38-47.894-78.333 17.017-94.86-37.749-94.86-37.749-12.805-32.531-31.266-41.192-31.266-41.192-25.568-17.472 1.933-17.117 1.933-17.117 28.26 1.99 43.134 29.019 43.134 29.019 25.12 43.033 65.907 30.607 81.954 23.398 2.559-18.198 9.833-30.607 17.878-37.646-62.53-7.106-128.269-31.265-128.269-139.175 0-30.741 10.973-55.88 28.986-75.564-2.896-7.125-12.56-35.756 2.76-74.525 0 0 23.644-7.572 77.438 28.867 22.461-6.246 46.55-9.37 70.499-9.478 23.913 0.109 48.004 3.233 70.499 9.478 53.761-36.44 77.361-28.867 77.361-28.867 15.363 38.77 5.697 67.4 2.802 74.525 18.048 19.685 28.946 44.821 28.946 75.564 0 108.18-65.84 131.984-128.573 138.955 10.112 8.695 19.117 25.882 19.117 52.149 0 37.646-0.345 68.018-0.345 77.251 0 7.53 5.072 16.292 19.363 13.54 111.8-37.31 192.413-142.787 192.413-267.158 0-155.54-126.093-281.615-281.618-281.615z" fill="#FFFFFF" p-id="7097"></path></svg>