<svg t="1598201183421" class="icon" viewBox="0 0 1024 1024" version="1.1" xmlns="http://www.w3.org/2000/svg" p-id="8021" width="48" height="48"><path d="M512 27.675676C244.514595 27.675676 27.675676 244.514595 27.675676 512c0 267.484022 216.838919 484.324324 484.324324 484.324324 267.484022 0 484.324324-216.840303 484.324324-484.324324 0-267.485405-216.840303-484.324324-484.324324-484.324324z m313.114292 797.438616c-40.679092 40.677708-88.040476 72.615438-140.768173 94.916497C629.784908 943.108151 571.797449 954.810811 512 954.810811s-117.783524-11.702659-172.35027-34.781406c-52.72493-22.301059-100.08493-54.234638-140.765406-94.916497-40.680476-40.679092-72.615438-88.040476-94.915113-140.768173C80.891849 629.784908 69.189189 571.797449 69.189189 512s11.702659-117.784908 34.781406-172.348886c22.301059-52.72493 54.234638-100.08493 94.915113-140.765406 40.679092-40.680476 88.040476-72.615438 140.765406-94.915113C394.215092 80.891849 452.203935 69.189189 512 69.189189s117.783524 11.702659 172.348886 34.781406c52.727697 22.301059 100.08493 54.234638 140.768173 94.915113 40.677708 40.679092 72.615438 88.040476 94.916498 140.765406C943.108151 394.215092 954.810811 452.202551 954.810811 512s-11.702659 117.784908-34.781406 172.348886c-22.299676 52.72493-54.234638 100.08493-94.915113 140.765406z" fill="#1296db" p-id="8022"></path><path d="M512 250.464865c-46.445319 0-100.270357 35.795719-143.982703 95.752303-44.073514 60.453362-69.349708 132.394897-69.349708 197.380151a13.833686 13.833686 0 0 0 9.462314 13.126573l119.697297 39.900022a13.836454 13.836454 0 0 0 14.161643-3.343222l33.850119-33.851503 111.584173 37.194725c2.840908 0.946508 5.910141 0.946508 8.751049 0l119.697297-39.900022a13.836454 13.836454 0 0 0 9.462314-13.126573c0-64.985254-25.277578-136.926789-69.351092-197.380151C612.270357 286.260584 558.445319 250.464865 512 250.464865z m79.798659 318.443243l-115.321773-38.44013a13.843373 13.843373 0 0 0-14.161643 3.343222l-33.850119 33.851503-101.897686-33.964973c2.5088-56.032173 25.962551-119.257254 63.813189-171.176822C428.326746 310.472649 474.927049 278.140541 512 278.140541s83.674638 32.332108 121.620757 84.380367a343.289081 343.289081 0 0 1 10.292584 14.932411 41.715546 41.715546 0 0 0-7.015784-0.601946c-22.925146 0-41.513514 18.5856-41.513514 41.513513s18.588368 41.513514 41.513514 41.513514c16.693968 0 31.0784-9.859459 37.673513-24.069535 13.450378 32.715416 21.459719 66.435459 22.865644 97.888865l-105.638055 35.210378zM704.029059 604.283157c-10.551351-4.469622-22.739719 0.456649-27.210724 11.008C645.644454 688.837881 569.529427 722.335135 512 722.335135s-133.645838-33.498638-164.819719-107.043978c-4.475157-10.555503-16.659373-15.481773-27.212108-11.009384-10.554119 4.472389-15.483157 16.655222-11.010768 27.209341 17.39693 41.044411 47.632605 75.391308 87.437146 99.328C431.815265 752.119697 472.870746 763.848649 512 763.848649s80.184735-11.730335 115.604065-33.029535c39.804541-23.936692 70.038832-58.280822 87.437146-99.319698 4.473773-10.55827-0.455265-22.741103-11.012152-27.216259z" fill="#1296db" p-id="8023"></path><path d="M435.900195 466.449989m-34.479741 0a34.479741 34.479741 0 1 0 68.959481 0 34.479741 34.479741 0 1 0-68.959481 0Z" fill="#1296db" p-id="8024"></path><path d="M498.257643 321.296605m-13.837838 0a13.837838 13.837838 0 1 0 27.675676 0 13.837838 13.837838 0 1 0-27.675676 0Z" fill="#1296db" p-id="8025"></path></svg>